<mxfile host="Electron" modified="2024-03-18T03:14:16.087Z" agent="Mozilla/5.0 (Macintosh; Intel Mac OS X 10_15_7) AppleWebKit/537.36 (KHTML, like Gecko) draw.io/24.0.4 Chrome/120.0.6099.109 Electron/28.1.0 Safari/537.36" etag="60RrNesVcTIchxB5I7lu" version="24.0.4" type="device">
  <diagram name="Page-1" id="74e2e168-ea6b-b213-b513-2b3c1d86103e">
    <mxGraphModel dx="1363" dy="891" grid="1" gridSize="10" guides="1" tooltips="1" connect="1" arrows="1" fold="1" page="1" pageScale="1" pageWidth="1100" pageHeight="850" background="none" math="0" shadow="0">
      <root>
        <mxCell id="0" />
        <mxCell id="1" parent="0" />
        <mxCell id="77e6c97f196da883-1" value="Pool" style="swimlane;html=1;childLayout=stackLayout;startSize=20;rounded=0;shadow=0;labelBackgroundColor=none;strokeWidth=1;fontFamily=Verdana;fontSize=8;align=center;" parent="1" vertex="1">
          <mxGeometry x="70" y="40" width="800" height="600" as="geometry" />
        </mxCell>
        <mxCell id="77e6c97f196da883-2" value="Peer A" style="swimlane;html=1;startSize=20;" parent="77e6c97f196da883-1" vertex="1">
          <mxGeometry y="20" width="160" height="580" as="geometry" />
        </mxCell>
        <mxCell id="77e6c97f196da883-8" value="Collect streaming data (getUserMedia/&lt;br&gt;captureMedia)" style="rounded=1;whiteSpace=wrap;html=1;shadow=0;labelBackgroundColor=none;strokeWidth=1;fontFamily=Verdana;fontSize=8;align=center;" parent="77e6c97f196da883-2" vertex="1">
          <mxGeometry x="20" y="40" width="130" height="40" as="geometry" />
        </mxCell>
        <mxCell id="e4_strgZaAOQ3hH9fiLS-1" value="createPeerConnection()&lt;br&gt;(RTCPeerConnection with STUN&lt;br&gt;server configuration )" style="rounded=1;whiteSpace=wrap;html=1;shadow=0;labelBackgroundColor=none;strokeWidth=1;fontFamily=Verdana;fontSize=8;align=center;" vertex="1" parent="77e6c97f196da883-2">
          <mxGeometry x="20" y="100" width="130" height="40" as="geometry" />
        </mxCell>
        <mxCell id="e4_strgZaAOQ3hH9fiLS-2" value="Add track into p2p connection" style="rounded=1;whiteSpace=wrap;html=1;shadow=0;labelBackgroundColor=none;strokeWidth=1;fontFamily=Verdana;fontSize=8;align=center;" vertex="1" parent="77e6c97f196da883-2">
          <mxGeometry x="20" y="160" width="130" height="30" as="geometry" />
        </mxCell>
        <mxCell id="e4_strgZaAOQ3hH9fiLS-5" value="generate SDP (offer)" style="rounded=1;whiteSpace=wrap;html=1;shadow=0;labelBackgroundColor=none;strokeWidth=1;fontFamily=Verdana;fontSize=8;align=center;" vertex="1" parent="77e6c97f196da883-2">
          <mxGeometry x="20" y="210" width="130" height="30" as="geometry" />
        </mxCell>
        <mxCell id="77e6c97f196da883-3" value="peer A ICE" style="swimlane;html=1;startSize=20;" parent="77e6c97f196da883-1" vertex="1">
          <mxGeometry x="160" y="20" width="160" height="580" as="geometry" />
        </mxCell>
        <mxCell id="e4_strgZaAOQ3hH9fiLS-6" value="ICE server create" style="rounded=1;whiteSpace=wrap;html=1;shadow=0;labelBackgroundColor=none;strokeWidth=1;fontFamily=Verdana;fontSize=8;align=center;" vertex="1" parent="77e6c97f196da883-3">
          <mxGeometry x="15" y="255" width="130" height="30" as="geometry" />
        </mxCell>
        <mxCell id="e4_strgZaAOQ3hH9fiLS-56" value="onReceiveAnswer()" style="rounded=1;whiteSpace=wrap;html=1;shadow=0;labelBackgroundColor=none;strokeWidth=1;fontFamily=Verdana;fontSize=8;align=center;" vertex="1" parent="77e6c97f196da883-3">
          <mxGeometry x="15" y="490" width="130" height="30" as="geometry" />
        </mxCell>
        <mxCell id="e4_strgZaAOQ3hH9fiLS-57" value="setRemoteDescription()" style="rounded=1;whiteSpace=wrap;html=1;shadow=0;labelBackgroundColor=none;strokeWidth=1;fontFamily=Verdana;fontSize=8;align=center;" vertex="1" parent="77e6c97f196da883-3">
          <mxGeometry x="15" y="540" width="130" height="30" as="geometry" />
        </mxCell>
        <mxCell id="77e6c97f196da883-4" value="Signaling server" style="swimlane;html=1;startSize=20;" parent="77e6c97f196da883-1" vertex="1">
          <mxGeometry x="320" y="20" width="160" height="580" as="geometry" />
        </mxCell>
        <mxCell id="e4_strgZaAOQ3hH9fiLS-41" value="Send offer to remote peer" style="rounded=1;whiteSpace=wrap;html=1;shadow=0;labelBackgroundColor=none;strokeWidth=1;fontFamily=Verdana;fontSize=8;align=center;" vertex="1" parent="77e6c97f196da883-4">
          <mxGeometry x="15" y="220" width="130" height="30" as="geometry" />
        </mxCell>
        <mxCell id="e4_strgZaAOQ3hH9fiLS-53" value="sendAnser to Peer A" style="rounded=1;whiteSpace=wrap;html=1;shadow=0;labelBackgroundColor=none;strokeWidth=1;fontFamily=Verdana;fontSize=8;align=center;" vertex="1" parent="77e6c97f196da883-4">
          <mxGeometry x="15" y="490" width="130" height="30" as="geometry" />
        </mxCell>
        <mxCell id="77e6c97f196da883-5" value="Peer B ICE" style="swimlane;html=1;startSize=20;" parent="77e6c97f196da883-1" vertex="1">
          <mxGeometry x="480" y="20" width="160" height="580" as="geometry" />
        </mxCell>
        <mxCell id="e4_strgZaAOQ3hH9fiLS-52" value="ICE server create" style="rounded=1;whiteSpace=wrap;html=1;shadow=0;labelBackgroundColor=none;strokeWidth=1;fontFamily=Verdana;fontSize=8;align=center;" vertex="1" parent="77e6c97f196da883-5">
          <mxGeometry x="15" y="530" width="130" height="30" as="geometry" />
        </mxCell>
        <mxCell id="77e6c97f196da883-6" value="Peer B" style="swimlane;html=1;startSize=20;" parent="77e6c97f196da883-1" vertex="1">
          <mxGeometry x="640" y="20" width="160" height="580" as="geometry" />
        </mxCell>
        <mxCell id="e4_strgZaAOQ3hH9fiLS-44" value="onReceiveOffer()" style="rounded=1;whiteSpace=wrap;html=1;shadow=0;labelBackgroundColor=none;strokeWidth=1;fontFamily=Verdana;fontSize=8;align=center;" vertex="1" parent="77e6c97f196da883-6">
          <mxGeometry x="15" y="220" width="130" height="30" as="geometry" />
        </mxCell>
        <mxCell id="e4_strgZaAOQ3hH9fiLS-47" value="Collect streaming data (getUserMedia/&lt;br&gt;captureMedia)" style="rounded=1;whiteSpace=wrap;html=1;shadow=0;labelBackgroundColor=none;strokeWidth=1;fontFamily=Verdana;fontSize=8;align=center;" vertex="1" parent="77e6c97f196da883-6">
          <mxGeometry x="15" y="270" width="130" height="40" as="geometry" />
        </mxCell>
        <mxCell id="e4_strgZaAOQ3hH9fiLS-48" value="createPeerConnection()&lt;br&gt;(RTCPeerConnection with STUN&lt;br&gt;server configuration )" style="rounded=1;whiteSpace=wrap;html=1;shadow=0;labelBackgroundColor=none;strokeWidth=1;fontFamily=Verdana;fontSize=8;align=center;" vertex="1" parent="77e6c97f196da883-6">
          <mxGeometry x="15" y="330" width="130" height="40" as="geometry" />
        </mxCell>
        <mxCell id="e4_strgZaAOQ3hH9fiLS-49" value="Add track into p2p connection" style="rounded=1;whiteSpace=wrap;html=1;shadow=0;labelBackgroundColor=none;strokeWidth=1;fontFamily=Verdana;fontSize=8;align=center;" vertex="1" parent="77e6c97f196da883-6">
          <mxGeometry x="15" y="390" width="130" height="30" as="geometry" />
        </mxCell>
        <mxCell id="e4_strgZaAOQ3hH9fiLS-50" value="setRemoteDescription()" style="rounded=1;whiteSpace=wrap;html=1;shadow=0;labelBackgroundColor=none;strokeWidth=1;fontFamily=Verdana;fontSize=8;align=center;" vertex="1" parent="77e6c97f196da883-6">
          <mxGeometry x="15" y="440" width="130" height="30" as="geometry" />
        </mxCell>
        <mxCell id="e4_strgZaAOQ3hH9fiLS-51" value="generate SDP (offer)" style="rounded=1;whiteSpace=wrap;html=1;shadow=0;labelBackgroundColor=none;strokeWidth=1;fontFamily=Verdana;fontSize=8;align=center;" vertex="1" parent="77e6c97f196da883-6">
          <mxGeometry x="15" y="490" width="130" height="30" as="geometry" />
        </mxCell>
        <mxCell id="e4_strgZaAOQ3hH9fiLS-42" style="edgeStyle=orthogonalEdgeStyle;rounded=0;orthogonalLoop=1;jettySize=auto;html=1;entryX=0;entryY=0.5;entryDx=0;entryDy=0;" edge="1" parent="77e6c97f196da883-1" source="e4_strgZaAOQ3hH9fiLS-5" target="e4_strgZaAOQ3hH9fiLS-41">
          <mxGeometry relative="1" as="geometry" />
        </mxCell>
        <mxCell id="e4_strgZaAOQ3hH9fiLS-43" style="edgeStyle=orthogonalEdgeStyle;rounded=0;orthogonalLoop=1;jettySize=auto;html=1;entryX=0.5;entryY=1;entryDx=0;entryDy=0;" edge="1" parent="77e6c97f196da883-1" source="e4_strgZaAOQ3hH9fiLS-6" target="e4_strgZaAOQ3hH9fiLS-41">
          <mxGeometry relative="1" as="geometry" />
        </mxCell>
        <mxCell id="e4_strgZaAOQ3hH9fiLS-45" style="edgeStyle=orthogonalEdgeStyle;rounded=0;orthogonalLoop=1;jettySize=auto;html=1;entryX=0;entryY=0.5;entryDx=0;entryDy=0;" edge="1" parent="77e6c97f196da883-1" source="e4_strgZaAOQ3hH9fiLS-41" target="e4_strgZaAOQ3hH9fiLS-44">
          <mxGeometry relative="1" as="geometry" />
        </mxCell>
        <mxCell id="e4_strgZaAOQ3hH9fiLS-54" style="edgeStyle=orthogonalEdgeStyle;rounded=0;orthogonalLoop=1;jettySize=auto;html=1;entryX=1;entryY=0.5;entryDx=0;entryDy=0;" edge="1" parent="77e6c97f196da883-1" source="e4_strgZaAOQ3hH9fiLS-51" target="e4_strgZaAOQ3hH9fiLS-53">
          <mxGeometry relative="1" as="geometry" />
        </mxCell>
        <mxCell id="e4_strgZaAOQ3hH9fiLS-55" style="edgeStyle=orthogonalEdgeStyle;rounded=0;orthogonalLoop=1;jettySize=auto;html=1;entryX=0.5;entryY=1;entryDx=0;entryDy=0;" edge="1" parent="77e6c97f196da883-1" source="e4_strgZaAOQ3hH9fiLS-52" target="e4_strgZaAOQ3hH9fiLS-53">
          <mxGeometry relative="1" as="geometry" />
        </mxCell>
        <mxCell id="e4_strgZaAOQ3hH9fiLS-58" style="edgeStyle=orthogonalEdgeStyle;rounded=0;orthogonalLoop=1;jettySize=auto;html=1;entryX=1;entryY=0.5;entryDx=0;entryDy=0;" edge="1" parent="77e6c97f196da883-1" source="e4_strgZaAOQ3hH9fiLS-53" target="e4_strgZaAOQ3hH9fiLS-56">
          <mxGeometry relative="1" as="geometry" />
        </mxCell>
      </root>
    </mxGraphModel>
  </diagram>
</mxfile>
